<svg version="1.1" id="Layer_1" xmlns="http://www.w3.org/2000/svg" xmlns:xlink="http://www.w3.org/1999/xlink" x="0px" y="0px"
	 width="100%" viewBox="0 0 919 913" enable-background="new 0 0 919 913" xml:space="preserve">
<path fill="#FFFFFF00" opacity="1.000000" stroke="none" 
	d="
M1.000000,326.000000 
	C1.000000,217.333328 1.000000,109.166664 1.000000,1.000000 
	C307.333344,1.000000 613.666687,1.000000 920.000000,1.000000 
	C920.000000,305.333344 920.000000,609.666687 920.000000,914.000000 
	C613.666687,914.000000 307.333344,914.000000 1.000000,914.000000 
	C1.000000,718.166687 1.000000,522.333313 1.000000,326.000000 
M121.924461,609.428284 
	C156.593903,575.046570 191.277527,540.679138 225.929642,506.279968 
	C283.881531,448.751190 341.853455,391.242523 399.717957,333.625977 
	C410.690735,322.700195 421.541901,311.612823 431.815704,300.037781 
	C439.175995,291.745239 438.925995,284.542145 431.058136,276.610809 
	C414.061554,259.477142 396.721436,242.675339 379.218903,226.056870 
	C372.235413,219.426102 368.375061,219.342575 360.952698,225.660599 
	C350.310883,234.719101 339.960541,244.158249 329.944519,253.906296 
	C304.749084,278.427704 279.675476,303.077820 254.794357,327.918091 
	C176.244781,406.338776 97.794022,484.858459 19.369703,563.404419 
	C16.354792,566.424011 12.939693,569.720520 11.540513,573.555481 
	C6.463626,587.470276 6.253723,601.738037 12.303721,615.420837 
	C21.768162,636.825867 39.102951,646.522339 61.988712,648.015503 
	C71.928238,648.664001 80.489464,646.160950 87.849251,639.777527 
	C99.161118,629.966370 110.244370,619.891602 121.924461,609.428284 
M727.531128,534.031128 
	C748.880188,512.727356 770.197449,491.391541 791.585449,470.126892 
	C827.740173,434.180695 864.063721,398.402771 899.983826,362.224030 
	C905.259827,356.910095 910.040405,350.307739 912.765320,343.400177 
	C922.712158,318.185303 913.023804,282.643372 876.343750,274.026489 
	C861.826965,270.616211 847.927856,270.473328 835.804749,280.909454 
	C832.525208,283.732727 829.202393,286.519836 826.091614,289.522705 
	C805.838013,309.073578 785.473145,328.513123 765.452209,348.300201 
	C716.745117,396.438385 668.029053,444.569885 619.651428,493.038330 
	C576.462158,536.308655 533.701721,580.007202 490.809113,623.572937 
	C485.809692,628.650818 485.178833,635.412598 490.184052,640.566956 
	C508.377014,659.301880 526.788513,677.835449 545.520630,696.029907 
	C551.779175,702.108887 556.127930,701.748413 562.596497,695.870239 
	C576.146301,683.557007 589.755127,671.279358 602.761902,658.403442 
	C644.327087,617.256226 685.628357,575.842346 727.531128,534.031128 
M510.501465,696.998535 
	C453.103302,639.628601 395.725372,582.238342 338.290375,524.905273 
	C326.383545,513.019592 314.346680,501.260956 302.213287,489.606689 
	C294.752930,482.440979 288.838226,481.790802 281.049744,488.399536 
	C272.325714,495.802124 264.113525,503.872559 256.202942,512.153320 
	C245.516922,523.339417 235.289749,534.966248 224.953629,546.482788 
	C221.586624,550.234375 221.469650,553.971802 225.163879,557.917969 
	C234.149750,567.516724 242.604050,577.629639 251.839615,586.975037 
	C287.322845,622.880310 322.929474,658.665100 358.676178,694.308289 
	C408.942108,744.428528 459.326141,794.430725 509.758392,844.383728 
	C529.170227,863.611145 548.820007,882.598938 568.449402,901.604980 
	C571.171631,904.240662 574.057312,907.417664 577.458008,908.516846 
	C590.732422,912.807617 604.040955,914.945923 617.776550,909.037842 
	C643.037537,898.172424 656.528870,872.366150 649.806641,845.781738 
	C648.822937,841.891418 646.924988,837.802368 644.290710,834.834167 
	C633.243225,822.386475 622.022156,810.068115 610.376953,798.180237 
	C577.379517,764.494629 544.142395,731.043640 510.501465,696.998535 
M666.894531,326.607147 
	C592.331482,252.264999 517.857971,177.832718 443.159760,103.626549 
	C414.682861,75.337166 385.709534,47.547058 356.900391,19.593351 
	C354.416931,17.183640 351.754639,14.632675 348.683167,13.210110 
	C334.292908,6.545200 319.605377,5.527408 304.739960,11.914832 
	C271.198700,26.326971 262.582275,69.575760 286.881989,93.547173 
	C295.527832,102.076180 303.388214,111.395882 311.896942,120.070396 
	C337.561371,146.234879 363.296021,172.331451 389.143677,198.314880 
	C407.693939,216.962585 426.478699,235.376938 445.142548,253.911819 
	C495.027649,303.452332 544.824585,353.082092 594.852600,402.477905 
	C604.551575,412.054321 614.924194,420.987122 625.380188,429.746399 
	C634.427185,437.325317 638.404297,437.057007 647.152466,429.433319 
	C652.293701,424.953003 657.361267,420.349396 662.092224,415.444611 
	C674.110474,402.984711 686.009827,390.406830 697.776978,377.709503 
	C703.826965,371.181305 703.920593,365.778076 697.994507,359.356964 
	C687.945435,348.468384 677.608337,337.845673 666.894531,326.607147 
M254.089325,625.398682 
	C238.264008,609.929688 222.553741,594.340332 206.552216,579.055847 
	C200.801849,573.563171 196.940155,573.667175 190.550034,578.197693 
	C188.251022,579.827637 186.020157,581.617065 184.023544,583.600769 
	C160.757629,606.716553 137.502045,629.843384 114.406670,653.128845 
	C112.904434,654.643494 112.037834,657.484985 112.051636,659.701965 
	C112.247543,691.168579 112.638168,722.634033 113.024437,754.099182 
	C113.042366,755.559814 113.097115,757.210022 113.754608,758.440796 
	C117.195953,764.882263 120.199081,771.694336 124.536819,777.493164 
	C134.876846,791.316162 147.147705,803.130249 164.878021,806.610413 
	C174.128922,808.426147 183.652420,809.588074 193.066986,809.686462 
	C214.685898,809.912415 236.323181,809.607483 257.933838,808.918213 
	C270.061279,808.531372 277.822052,800.859314 278.894684,789.498108 
	C279.456848,783.543518 279.845276,777.550720 279.883820,771.572388 
	C280.032043,748.588745 280.136292,725.603088 280.000244,702.619812 
	C279.913605,687.979431 279.705933,673.321960 278.827789,658.715698 
	C278.579651,654.588196 276.612183,649.932983 273.978363,646.707947 
	C267.993866,639.380005 261.106079,632.789734 254.089325,625.398682 
M758.111694,111.880951 
	C730.973511,111.587311 703.835754,111.233261 676.696777,111.054939 
	C671.729065,111.022293 666.705017,111.372246 661.797974,112.132530 
	C653.855957,113.363037 647.363892,119.875977 646.861206,127.621849 
	C646.010864,140.726715 645.385559,153.866486 645.291321,166.996094 
	C645.061768,198.975906 645.170471,230.958328 645.232056,262.939514 
	C645.235352,264.653900 645.612976,266.689880 646.581055,268.019257 
	C649.415100,271.910706 652.379150,275.773346 655.750244,279.196228 
	C669.658081,293.317810 683.624939,307.385498 697.797180,321.240631 
	C704.809998,328.096497 712.170471,334.619110 719.646301,340.971588 
	C725.302185,345.777527 728.267822,345.627899 734.362305,341.385437 
	C735.589294,340.531342 736.857422,339.695587 737.931458,338.668243 
	C758.859375,318.649719 779.681824,298.520111 800.709961,278.607605 
	C808.518066,271.213715 811.540039,262.539520 811.294861,251.815170 
	C810.742981,227.673248 811.016602,203.513458 810.776978,179.362701 
	C810.717773,173.391022 810.448486,167.347397 809.459473,161.474274 
	C807.343384,148.907455 799.773926,139.240738 790.870667,130.857391 
	C781.747437,122.266914 771.134949,115.684097 758.111694,111.880951 
M591.554749,743.928040 
	C609.357544,761.461426 627.354797,778.803284 644.884583,796.605469 
	C654.276489,806.143250 665.193787,810.303589 678.434753,810.078796 
	C699.423462,809.722412 720.442200,809.334656 741.407166,810.093872 
	C752.812439,810.506836 762.637878,807.542603 772.081299,801.873047 
	C774.363647,800.502869 776.791626,799.362915 779.009827,797.900513 
	C795.799011,786.831665 808.278564,771.791565 809.529541,751.628784 
	C811.412048,721.285156 810.766907,690.771484 810.738281,660.330505 
	C810.729858,651.338623 806.055237,646.133728 798.387268,644.407837 
	C795.158447,643.681091 791.822388,643.139099 788.522949,643.066772 
	C769.714111,642.653748 750.901489,642.155457 732.090515,642.171021 
	C710.117371,642.189209 688.144287,642.678589 666.172119,643.025208 
	C660.941040,643.107788 655.848145,643.877991 651.818481,647.713867 
	C630.955688,667.573669 609.817444,687.155579 589.349731,707.414856 
	C576.701111,719.934509 576.938416,726.317322 588.045471,740.091492 
	C588.983826,741.255127 590.051453,742.314514 591.554749,743.928040 
M339.699738,207.090851 
	C344.887238,198.735840 344.744812,193.464203 338.934906,185.582108 
	C337.162567,183.177597 335.274231,180.817963 333.171478,178.703903 
	C311.443024,156.858627 289.702301,135.024872 267.799225,113.355453 
	C266.282227,111.854645 263.438660,110.995224 261.219604,111.009613 
	C232.921051,111.193161 204.618057,111.367241 176.330734,112.103050 
	C169.834076,112.272034 162.962479,113.539711 157.002975,116.054398 
	C135.728409,125.031471 120.042587,139.731003 114.650436,162.987640 
	C112.755005,171.162796 112.316933,179.793457 112.169525,188.232834 
	C111.814751,208.545761 112.020210,228.868546 112.009186,249.187363 
	C112.000954,264.367310 111.953110,264.426605 123.123985,274.685547 
	C124.530724,275.977417 126.873932,276.911682 128.778061,276.902802 
	C173.231323,276.694611 217.683914,276.339294 262.136475,275.993378 
	C268.155518,275.946564 273.378387,274.082764 277.799103,269.727692 
	C288.353607,259.329926 299.257446,249.282913 309.694153,238.770538 
	C319.769287,228.622330 329.436035,218.068665 339.699738,207.090851 
M507.083435,76.584557 
	C500.807251,83.254425 494.345123,89.761513 488.315643,96.647400 
	C483.764282,101.845207 483.782013,106.982483 488.537018,111.820175 
	C506.745148,130.344833 524.983643,148.847351 543.583740,166.975433 
	C551.609009,174.797012 557.380859,174.794708 565.223267,167.065109 
	C590.487488,142.164398 615.470703,116.977867 640.474915,91.814751 
	C647.969421,84.272621 651.256958,74.732780 652.054688,64.350060 
	C653.644409,43.657879 643.733459,28.769629 627.882446,16.822277 
	C611.593262,4.544666 585.024231,2.531003 568.576294,18.447197 
	C548.475769,37.897888 527.933044,56.891632 507.083435,76.584557 
M293.739624,901.805359 
	C308.277557,914.854431 341.169952,917.111877 357.194763,900.555603 
	C362.507355,895.066711 368.630219,890.366211 373.997162,884.925110 
	C394.328430,864.312744 414.609833,843.648376 434.660339,822.763916 
	C439.875092,817.332214 439.567291,813.233704 434.658630,807.322815 
	C430.942200,802.847717 427.077179,798.459351 422.934937,794.381042 
	C408.347626,780.018860 393.693604,765.721863 378.890961,751.582214 
	C373.357849,746.296936 368.707336,745.987183 363.622894,750.843689 
	C338.242889,775.085876 312.904297,799.375671 287.881104,823.984314 
	C281.378113,830.379456 275.744263,837.896790 273.974945,847.248230 
	C269.869873,868.945312 276.902924,886.830322 293.739624,901.805359 
M791.103699,506.594177 
	C779.946533,518.035278 768.739990,529.428772 757.649597,540.934143 
	C750.287354,548.571899 749.548157,554.907104 756.631165,562.951538 
	C766.288818,573.920105 776.555603,584.394592 787.061707,594.563843 
	C802.485535,609.493225 818.272949,624.051575 834.097473,638.558594 
	C837.228455,641.428894 840.929077,644.353516 844.880188,645.531006 
	C858.511353,649.593079 872.343994,649.367126 885.313721,643.213013 
	C903.539612,634.564819 914.064270,619.898315 915.824951,599.646729 
	C916.725525,589.288147 916.284912,578.786194 909.475891,570.097595 
	C904.457336,563.693542 898.977051,557.602112 893.270447,551.795959 
	C876.712158,534.948486 860.019653,518.230164 843.192078,501.651703 
	C838.471680,497.001160 833.369446,492.631378 827.963257,488.810699 
	C821.280762,484.087982 815.954712,484.470734 809.753418,489.705078 
	C803.527954,494.959869 797.642761,500.617767 791.103699,506.594177 
M149.826035,397.346283 
	C155.250595,391.715210 160.950256,386.320923 166.043091,380.404327 
	C177.019470,367.652435 174.754364,366.519348 166.073547,356.615234 
	C165.744537,356.239868 165.400040,355.876953 165.047272,355.523682 
	C141.763931,332.206970 118.604469,308.764679 95.147903,285.623535 
	C80.687256,271.357361 63.616615,268.695831 44.498821,274.993958 
	C8.952935,286.704102 -5.382935,332.002930 22.220734,358.998871 
	C39.223087,375.627014 55.465622,393.029449 72.293152,409.840118 
	C80.166176,417.705292 88.436913,425.201355 96.876328,432.458984 
	C101.499153,436.434448 106.020149,436.254120 111.117538,432.904358 
	C113.606918,431.268524 115.997070,429.410522 118.165916,427.370117 
	C128.588150,417.565094 138.919510,407.663483 149.826035,397.346283 
z"/>
<path fill="#212842" opacity="1.000000" stroke="none" 
	d="
M121.674545,609.678467 
	C110.244370,619.891602 99.161118,629.966370 87.849251,639.777527 
	C80.489464,646.160950 71.928238,648.664001 61.988712,648.015503 
	C39.102951,646.522339 21.768162,636.825867 12.303721,615.420837 
	C6.253723,601.738037 6.463626,587.470276 11.540513,573.555481 
	C12.939693,569.720520 16.354792,566.424011 19.369703,563.404419 
	C97.794022,484.858459 176.244781,406.338776 254.794357,327.918091 
	C279.675476,303.077820 304.749084,278.427704 329.944519,253.906296 
	C339.960541,244.158249 350.310883,234.719101 360.952698,225.660599 
	C368.375061,219.342575 372.235413,219.426102 379.218903,226.056870 
	C396.721436,242.675339 414.061554,259.477142 431.058136,276.610809 
	C438.925995,284.542145 439.175995,291.745239 431.815704,300.037781 
	C421.541901,311.612823 410.690735,322.700195 399.717957,333.625977 
	C341.853455,391.242523 283.881531,448.751190 225.929642,506.279968 
	C191.277527,540.679138 156.593903,575.046570 121.674545,609.678467 
z"/>
<path fill="#212842" opacity="1.000000" stroke="none" 
	d="
M727.281311,534.281250 
	C685.628357,575.842346 644.327087,617.256226 602.761902,658.403442 
	C589.755127,671.279358 576.146301,683.557007 562.596497,695.870239 
	C556.127930,701.748413 551.779175,702.108887 545.520630,696.029907 
	C526.788513,677.835449 508.377014,659.301880 490.184052,640.566956 
	C485.178833,635.412598 485.809692,628.650818 490.809113,623.572937 
	C533.701721,580.007202 576.462158,536.308655 619.651428,493.038330 
	C668.029053,444.569885 716.745117,396.438385 765.452209,348.300201 
	C785.473145,328.513123 805.838013,309.073578 826.091614,289.522705 
	C829.202393,286.519836 832.525208,283.732727 835.804749,280.909454 
	C847.927856,270.473328 861.826965,270.616211 876.343750,274.026489 
	C913.023804,282.643372 922.712158,318.185303 912.765320,343.400177 
	C910.040405,350.307739 905.259827,356.910095 899.983826,362.224030 
	C864.063721,398.402771 827.740173,434.180695 791.585449,470.126892 
	C770.197449,491.391541 748.880188,512.727356 727.281311,534.281250 
z"/>
<path fill="#212842" opacity="1.000000" stroke="none" 
	d="
M510.750580,697.249390 
	C544.142395,731.043640 577.379517,764.494629 610.376953,798.180237 
	C622.022156,810.068115 633.243225,822.386475 644.290710,834.834167 
	C646.924988,837.802368 648.822937,841.891418 649.806641,845.781738 
	C656.528870,872.366150 643.037537,898.172424 617.776550,909.037842 
	C604.040955,914.945923 590.732422,912.807617 577.458008,908.516846 
	C574.057312,907.417664 571.171631,904.240662 568.449402,901.604980 
	C548.820007,882.598938 529.170227,863.611145 509.758392,844.383728 
	C459.326141,794.430725 408.942108,744.428528 358.676178,694.308289 
	C322.929474,658.665100 287.322845,622.880310 251.839615,586.975037 
	C242.604050,577.629639 234.149750,567.516724 225.163879,557.917969 
	C221.469650,553.971802 221.586624,550.234375 224.953629,546.482788 
	C235.289749,534.966248 245.516922,523.339417 256.202942,512.153320 
	C264.113525,503.872559 272.325714,495.802124 281.049744,488.399536 
	C288.838226,481.790802 294.752930,482.440979 302.213287,489.606689 
	C314.346680,501.260956 326.383545,513.019592 338.290375,524.905273 
	C395.725372,582.238342 453.103302,639.628601 510.750580,697.249390 
z"/>
<path fill="#212842" opacity="1.000000" stroke="none" 
	d="
M667.143433,326.859192 
	C677.608337,337.845673 687.945435,348.468384 697.994507,359.356964 
	C703.920593,365.778076 703.826965,371.181305 697.776978,377.709503 
	C686.009827,390.406830 674.110474,402.984711 662.092224,415.444611 
	C657.361267,420.349396 652.293701,424.953003 647.152466,429.433319 
	C638.404297,437.057007 634.427185,437.325317 625.380188,429.746399 
	C614.924194,420.987122 604.551575,412.054321 594.852600,402.477905 
	C544.824585,353.082092 495.027649,303.452332 445.142548,253.911819 
	C426.478699,235.376938 407.693939,216.962585 389.143677,198.314880 
	C363.296021,172.331451 337.561371,146.234879 311.896942,120.070396 
	C303.388214,111.395882 295.527832,102.076180 286.881989,93.547173 
	C262.582275,69.575760 271.198700,26.326971 304.739960,11.914832 
	C319.605377,5.527408 334.292908,6.545200 348.683167,13.210110 
	C351.754639,14.632675 354.416931,17.183640 356.900391,19.593351 
	C385.709534,47.547058 414.682861,75.337166 443.159760,103.626549 
	C517.857971,177.832718 592.331482,252.264999 667.143433,326.859192 
z"/>
<path fill="#212842" opacity="1.000000" stroke="none" 
	d="
M254.337387,625.649170 
	C261.106079,632.789734 267.993866,639.380005 273.978363,646.707947 
	C276.612183,649.932983 278.579651,654.588196 278.827789,658.715698 
	C279.705933,673.321960 279.913605,687.979431 280.000244,702.619812 
	C280.136292,725.603088 280.032043,748.588745 279.883820,771.572388 
	C279.845276,777.550720 279.456848,783.543518 278.894684,789.498108 
	C277.822052,800.859314 270.061279,808.531372 257.933838,808.918213 
	C236.323181,809.607483 214.685898,809.912415 193.066986,809.686462 
	C183.652420,809.588074 174.128922,808.426147 164.878021,806.610413 
	C147.147705,803.130249 134.876846,791.316162 124.536819,777.493164 
	C120.199081,771.694336 117.195953,764.882263 113.754608,758.440796 
	C113.097115,757.210022 113.042366,755.559814 113.024437,754.099182 
	C112.638168,722.634033 112.247543,691.168579 112.051636,659.701965 
	C112.037834,657.484985 112.904434,654.643494 114.406670,653.128845 
	C137.502045,629.843384 160.757629,606.716553 184.023544,583.600769 
	C186.020157,581.617065 188.251022,579.827637 190.550034,578.197693 
	C196.940155,573.667175 200.801849,573.563171 206.552216,579.055847 
	C222.553741,594.340332 238.264008,609.929688 254.337387,625.649170 
z"/>
<path fill="#212842" opacity="1.000000" stroke="none" 
	d="
M758.560974,111.885544 
	C771.134949,115.684097 781.747437,122.266914 790.870667,130.857391 
	C799.773926,139.240738 807.343384,148.907455 809.459473,161.474274 
	C810.448486,167.347397 810.717773,173.391022 810.776978,179.362701 
	C811.016602,203.513458 810.742981,227.673248 811.294861,251.815170 
	C811.540039,262.539520 808.518066,271.213715 800.709961,278.607605 
	C779.681824,298.520111 758.859375,318.649719 737.931458,338.668243 
	C736.857422,339.695587 735.589294,340.531342 734.362305,341.385437 
	C728.267822,345.627899 725.302185,345.777527 719.646301,340.971588 
	C712.170471,334.619110 704.809998,328.096497 697.797180,321.240631 
	C683.624939,307.385498 669.658081,293.317810 655.750244,279.196228 
	C652.379150,275.773346 649.415100,271.910706 646.581055,268.019257 
	C645.612976,266.689880 645.235352,264.653900 645.232056,262.939514 
	C645.170471,230.958328 645.061768,198.975906 645.291321,166.996094 
	C645.385559,153.866486 646.010864,140.726715 646.861206,127.621849 
	C647.363892,119.875977 653.855957,113.363037 661.797974,112.132530 
	C666.705017,111.372246 671.729065,111.022293 676.696777,111.054939 
	C703.835754,111.233261 730.973511,111.587311 758.560974,111.885544 
z"/>
<path fill="#212842" opacity="1.000000" stroke="none" 
	d="
M591.306885,743.675171 
	C590.051453,742.314514 588.983826,741.255127 588.045471,740.091492 
	C576.938416,726.317322 576.701111,719.934509 589.349731,707.414856 
	C609.817444,687.155579 630.955688,667.573669 651.818481,647.713867 
	C655.848145,643.877991 660.941040,643.107788 666.172119,643.025208 
	C688.144287,642.678589 710.117371,642.189209 732.090515,642.171021 
	C750.901489,642.155457 769.714111,642.653748 788.522949,643.066772 
	C791.822388,643.139099 795.158447,643.681091 798.387268,644.407837 
	C806.055237,646.133728 810.729858,651.338623 810.738281,660.330505 
	C810.766907,690.771484 811.412048,721.285156 809.529541,751.628784 
	C808.278564,771.791565 795.799011,786.831665 779.009827,797.900513 
	C776.791626,799.362915 774.363647,800.502869 772.081299,801.873047 
	C762.637878,807.542603 752.812439,810.506836 741.407166,810.093872 
	C720.442200,809.334656 699.423462,809.722412 678.434753,810.078796 
	C665.193787,810.303589 654.276489,806.143250 644.884583,796.605469 
	C627.354797,778.803284 609.357544,761.461426 591.306885,743.675171 
z"/>
<path fill="#212842" opacity="1.000000" stroke="none" 
	d="
M339.490967,207.391968 
	C329.436035,218.068665 319.769287,228.622330 309.694153,238.770538 
	C299.257446,249.282913 288.353607,259.329926 277.799103,269.727692 
	C273.378387,274.082764 268.155518,275.946564 262.136475,275.993378 
	C217.683914,276.339294 173.231323,276.694611 128.778061,276.902802 
	C126.873932,276.911682 124.530724,275.977417 123.123985,274.685547 
	C111.953110,264.426605 112.000954,264.367310 112.009186,249.187363 
	C112.020210,228.868546 111.814751,208.545761 112.169525,188.232834 
	C112.316933,179.793457 112.755005,171.162796 114.650436,162.987640 
	C120.042587,139.731003 135.728409,125.031471 157.002975,116.054398 
	C162.962479,113.539711 169.834076,112.272034 176.330734,112.103050 
	C204.618057,111.367241 232.921051,111.193161 261.219604,111.009613 
	C263.438660,110.995224 266.282227,111.854645 267.799225,113.355453 
	C289.702301,135.024872 311.443024,156.858627 333.171478,178.703903 
	C335.274231,180.817963 337.162567,183.177597 338.934906,185.582108 
	C344.744812,193.464203 344.887238,198.735840 339.490967,207.391968 
z"/>
<path fill="#212842" opacity="1.000000" stroke="none" 
	d="
M507.332458,76.333771 
	C527.933044,56.891632 548.475769,37.897888 568.576294,18.447197 
	C585.024231,2.531003 611.593262,4.544666 627.882446,16.822277 
	C643.733459,28.769629 653.644409,43.657879 652.054688,64.350060 
	C651.256958,74.732780 647.969421,84.272621 640.474915,91.814751 
	C615.470703,116.977867 590.487488,142.164398 565.223267,167.065109 
	C557.380859,174.794708 551.609009,174.797012 543.583740,166.975433 
	C524.983643,148.847351 506.745148,130.344833 488.537018,111.820175 
	C483.782013,106.982483 483.764282,101.845207 488.315643,96.647400 
	C494.345123,89.761513 500.807251,83.254425 507.332458,76.333771 
z"/>
<path fill="#212842" opacity="1.000000" stroke="none" 
	d="
M293.457214,901.587158 
	C276.902924,886.830322 269.869873,868.945312 273.974945,847.248230 
	C275.744263,837.896790 281.378113,830.379456 287.881104,823.984314 
	C312.904297,799.375671 338.242889,775.085876 363.622894,750.843689 
	C368.707336,745.987183 373.357849,746.296936 378.890961,751.582214 
	C393.693604,765.721863 408.347626,780.018860 422.934937,794.381042 
	C427.077179,798.459351 430.942200,802.847717 434.658630,807.322815 
	C439.567291,813.233704 439.875092,817.332214 434.660339,822.763916 
	C414.609833,843.648376 394.328430,864.312744 373.997162,884.925110 
	C368.630219,890.366211 362.507355,895.066711 357.194763,900.555603 
	C341.169952,917.111877 308.277557,914.854431 293.457214,901.587158 
z"/>
<path fill="#212842" opacity="1.000000" stroke="none" 
	d="
M791.356079,506.346588 
	C797.642761,500.617767 803.527954,494.959869 809.753418,489.705078 
	C815.954712,484.470734 821.280762,484.087982 827.963257,488.810699 
	C833.369446,492.631378 838.471680,497.001160 843.192078,501.651703 
	C860.019653,518.230164 876.712158,534.948486 893.270447,551.795959 
	C898.977051,557.602112 904.457336,563.693542 909.475891,570.097595 
	C916.284912,578.786194 916.725525,589.288147 915.824951,599.646729 
	C914.064270,619.898315 903.539612,634.564819 885.313721,643.213013 
	C872.343994,649.367126 858.511353,649.593079 844.880188,645.531006 
	C840.929077,644.353516 837.228455,641.428894 834.097473,638.558594 
	C818.272949,624.051575 802.485535,609.493225 787.061707,594.563843 
	C776.555603,584.394592 766.288818,573.920105 756.631165,562.951538 
	C749.548157,554.907104 750.287354,548.571899 757.649597,540.934143 
	C768.739990,529.428772 779.946533,518.035278 791.356079,506.346588 
z"/>
<path fill="#212842" opacity="1.000000" stroke="none" 
	d="
M149.554596,397.571228 
	C138.919510,407.663483 128.588150,417.565094 118.165916,427.370117 
	C115.997070,429.410522 113.606918,431.268524 111.117538,432.904358 
	C106.020149,436.254120 101.499153,436.434448 96.876328,432.458984 
	C88.436913,425.201355 80.166176,417.705292 72.293152,409.840118 
	C55.465622,393.029449 39.223087,375.627014 22.220734,358.998871 
	C-5.382935,332.002930 8.952935,286.704102 44.498821,274.993958 
	C63.616615,268.695831 80.687256,271.357361 95.147903,285.623535 
	C118.604469,308.764679 141.763931,332.206970 165.047272,355.523682 
	C165.400040,355.876953 165.744537,356.239868 166.073547,356.615234 
	C174.754364,366.519348 177.019470,367.652435 166.043091,380.404327 
	C160.950256,386.320923 155.250595,391.715210 149.554596,397.571228 
z"/>
</svg>